<?xml version="1.0" encoding="iso-8859-1"?>
<!-- Uploaded to: SVG Repo, www.svgrepo.com, Generator: SVG Repo Mixer Tools -->
<!DOCTYPE svg PUBLIC "-//W3C//DTD SVG 1.1//EN" "http://www.w3.org/Graphics/SVG/1.1/DTD/svg11.dtd">
<svg fill="#000000" version="1.1" id="Capa_1" xmlns="http://www.w3.org/2000/svg" xmlns:xlink="http://www.w3.org/1999/xlink" 
	 width="800px" height="800px" viewBox="0 0 532.974 532.974"
	 xml:space="preserve">
<g>
	<path d="M470.078,226.899c-0.242-2.559-1.247-4.649-2.453-6.463c1.2-3.088,0.863-6.762-1.69-8.438
		c1.017-2.045,1.779-4.516,1.312-7.495c-4.025-25.951-10.078-47.658-14.446-61.294c-2.618-8.174-10.237-7.134-16.521-5.651
		c1.886-3.124,4.368-6.75,6.881-9.945c1.714-2.187,2.122-5.435,1.005-8.142c-2.997-7.312-6.106-14.393-9.233-21.069
		c-5.354-11.44-10.958-22.056-16.645-31.54c-2.157-3.609-5.308-4.8-7.606-5.678c-0.261-0.098-0.586-0.225-0.881-0.346
		c-0.048-0.092-0.071-0.198-0.118-0.284c-0.006-0.298-0.019-0.612-0.024-0.866c-0.088-2.808-0.206-6.646-2.382-9.679
		c-22.136-30.976-46.423-47.792-72.158-49.981c-3.251-0.278-6.012,1.475-8.021,2.754c-0.101,0.065-0.219,0.139-0.331,0.204
		c-0.36-0.101-0.715-0.115-1.081-0.139c-1.419-1.271-3.523-2.772-6.343-2.323c-28.915,4.279-49.213,25.414-53.273,29.947
		c-5.568-5.967-25.174-24.991-52.435-29.028c-2.819-0.449-4.92,1.053-6.342,2.323c-0.37,0.026-0.728,0.038-1.085,0.142
		c-0.109-0.067-0.225-0.142-0.328-0.207c-2.01-1.277-4.767-3.032-8.03-2.754c-25.729,2.193-50.008,19.006-72.146,49.976
		c-2.175,3.032-2.296,6.877-2.385,9.685c-0.006,0.254-0.021,0.564-0.026,0.866c-0.047,0.085-0.071,0.195-0.112,0.283
		c-0.305,0.121-0.63,0.249-0.893,0.346c-2.293,0.878-5.435,2.072-7.602,5.678c-5.683,9.49-11.286,20.103-16.639,31.54
		c-3.13,6.676-6.239,13.757-9.241,21.068c-1.114,2.701-0.704,5.958,1.017,8.143c2.506,3.188,4.989,6.821,6.877,9.944
		c-6.283-1.483-13.911-2.523-16.526,5.654c-4.368,13.636-10.421,35.34-14.446,61.294c-0.467,2.977,0.295,5.447,1.312,7.492
		c-2.547,1.676-2.893,5.353-1.688,8.438c-1.206,1.814-2.205,3.91-2.453,6.464c-7.158,74.321,8.929,141.562,46.521,194.446
		c2.911,4.084,6.404,3.404,10.072,0.91c-2.184,6.312-2.373,9.416,0.189,12.537c33.404,40.955,81.19,73.559,142.035,96.924
		c0.6,0.225,1.206,0.338,1.803,0.338c1.338,0,2.609-0.58,3.644-1.555c0.721,0.372,1.489,0.632,2.296,0.632
		c0.604,0,1.203-0.112,1.803-0.337c60.843-23.365,108.631-55.975,142.033-96.918c2.565-3.127,2.382-6.225,0.188-12.543
		c3.671,2.494,7.17,3.174,10.072-0.91C461.142,368.465,477.23,301.224,470.078,226.899z M100.614,383.448
		c-15.146-29.571-24.06-62.341-26.669-98.041C98.339,309.416,104.462,346.56,100.614,383.448z M257.562,251.479
		c-22.939-5.228-45.95-9.12-69.235-10.429c6.936-4.909,14.404-8.514,22.425-10.332c7.524-1.699,4.327-15.548-3.159-13.855
		c-13.565,3.077-25.493,10.847-36.304,21.004c-2.016,1.895-2.396,4.273-1.814,6.404c-1.708,4.235-0.086,10.592,5.03,10.646
		c28.046,0.278,55.579,4.734,83.064,11.145v98.663c-6.803-8.771-15.093-14.564-24.822-18.082c-0.101-1.027-0.423-2.104-1.117-3.191
		c-11.532-18.294-14.854-38.396-12.555-61.017c0.931-9.18-10.967-9.073-11.886,0c-2.205,21.616,0.635,42.25,9.785,60.467
		c-18.799-2.677-36.351-2.541-41.7-30.05c-0.819-4.191-5.672-7.028-8.73-4.291c-9.472,8.458-19.325,16.467-26.95,27.461
		c-4.891,7.046,3.473,17.266,8.399,10.154c5.364-7.713,11.815-13.854,18.456-19.789c5.246,15.434,14.993,24.761,29.917,28.1
		c23.634,5.291,45.273,2.288,59.176,30.943c0.558,1.146,1.265,1.897,2.021,2.471v127.998c-4.303-1.744-8.411-3.618-12.569-5.45
		c-0.287-0.491-0.491-0.999-0.917-1.448c-13.636-14.34-16.6-32.35-9.472-52.346c3.002-8.411-7.232-15.74-10.258-7.246
		c-1.72,4.822-3.026,9.634-3.904,14.375c-2.415-11.036-0.721-24.176,0.121-34.992c0.712-9.227-11.186-9.145-11.887,0
		c-1.714,22.136-3.026,44.856,11.553,60.271c0.703,3.807,1.738,7.531,3.171,11.125c-24.935-12.826-46.925-27.562-65.772-44.154
		c17.097-1.016,33.139-8.098,47.608-21.042c6.091-5.438,0.166-17.921-6.002-12.4c-16.79,15.013-35.94,22.307-56.829,18.424
		c-0.195-0.036-0.352,0.041-0.538,0.023c-3.942-4.078-7.743-8.245-11.336-12.519c0.815-2.306,2.057-5.468,2.97-7.832
		c4.85-12.377,6.472-16.551,3.142-20.842c-4.909-6.295-10.962-0.408-17.378,5.811c-0.984,0.963-2.341,2.27-3.541,3.357
		c-2-2.943-3.934-5.935-5.804-8.955c0.387-0.715,0.709-1.537,0.872-2.571c7.646-49.922-0.222-100.926-37.294-130.214
		c-0.127-0.101-0.254-0.147-0.384-0.242c-0.15-11.955,0.34-24.208,1.522-36.765c0.417-0.612,1.294-1.599,1.9-2.291
		c0.81-0.913,1.64-1.903,2.415-2.958c15.416-1.434,29.323,2.143,39.147,12.33c0.438,2.571,2.143,4.389,4.203,5.042
		c4.986,7.149,8.443,16.639,9.815,28.803c1.043,9.144,12.492,5.237,11.47-3.812c-1.64-14.514-5.955-25.886-12.129-34.549
		c5.06-11.174,15.599-15.096,26.203-13.816c7.631,0.919,7.554-13.456,0-14.369c-14.156-1.708-27.491,5.015-35.016,18.575
		c-11.402-9.546-26.291-13.267-42.173-12.457c-0.703-1.386-1.513-2.616-2.21-3.582c-0.192-0.272-0.393-0.541-0.579-0.801
		c3.611-22.606,8.774-41.728,12.782-54.557c1.682,0.175,4.256,0.81,5.811,1.203c5.751,1.424,12.268,3.044,14.866-3.866
		c0.848-2.264,3.298-8.852-9.848-26.773c2.329-5.526,4.708-10.882,7.104-15.991c5.14-10.974,10.489-21.134,15.569-29.749
		c0.29-0.222,1.253-0.591,1.895-0.833c1.028-0.387,2.246-0.866,3.455-1.593c23.241,11.671,27.287,35.722,20.386,58.845
		c-0.907,1.295-1.392,2.888-1.549,4.51c-3.36,9.301-8.343,18.297-14.511,26.073c-5.302,6.682,3.094,16.857,8.408,10.158
		c7.167-9.032,12.785-19.249,16.621-29.811c27.769-4.472,57.719-10.299,83.149,6.993c6.688,4.545,12.688-7.855,6.005-12.401
		c-5.63-3.827-11.408-6.641-17.298-8.691c-1.289-5.394-1.548-10.574-1.557-16.234c0-9.262-11.887-9.268-11.887,0
		c0.006,4.413,0.189,8.728,0.715,13.001c-17.972-3.085-36.673-0.52-55.023,2.338c5.113-26.855-2.32-53.48-27.606-67.276
		c0-0.187,0.018-0.405,0.024-0.585c0.018-0.553,0.012-1.103,0.053-1.605c19.842-27.479,41.183-42.369,63.062-44.281
		c0.375,0.095,1.368,0.73,2.021,1.15c0.662,0.422,1.413,0.877,2.199,1.294c4.14,20.324,9.732,40.031,17.345,58.886
		c3.366,8.322,13.606,1.035,10.261-7.252c-6.883-17.044-11.863-34.874-15.69-53.197c21.657,4.058,37.897,19.074,43.107,24.468
		v210.878H257.562z M432.355,382.526c-3.854-36.895,2.276-74.026,26.67-98.036C456.413,320.191,447.499,352.961,432.355,382.526z
		 M459.48,266.351c-37.072,29.281-44.951,80.291-37.297,130.208c0.153,1.034,0.479,1.862,0.869,2.571
		c-1.868,3.026-3.801,6.012-5.811,8.961c-1.194-1.094-2.548-2.4-3.535-3.363c-6.419-6.213-12.472-12.105-17.371-5.811
		c-3.34,4.291-1.715,8.464,3.133,20.842c0.922,2.363,2.157,5.526,2.973,7.831c-3.594,4.273-7.4,8.446-11.337,12.525
		c-0.177,0.018-0.343-0.065-0.538-0.024c-20.883,3.872-40.027-3.416-56.826-18.424c-6.182-5.52-12.087,6.951-5.999,12.401
		c14.476,12.938,30.506,20.02,47.605,21.036c-18.85,16.592-40.838,31.327-65.775,44.153c1.437-3.6,2.471-7.317,3.175-11.124
		c14.575-15.415,13.264-38.136,11.549-60.271c-0.697-9.145-12.596-9.221-11.886,0c0.845,10.816,2.535,23.956,0.124,34.991
		c-0.881-4.746-2.182-9.552-3.907-14.375c-3.026-8.487-13.258-1.164-10.255,7.253c7.128,19.996,4.161,38.006-9.476,52.34
		c-0.425,0.455-0.626,0.957-0.916,1.448c-4.161,1.838-8.263,3.712-12.572,5.455V386.972c0.763-0.562,1.466-1.318,2.027-2.471
		c13.902-28.65,35.542-25.653,59.173-30.943c14.937-3.334,24.672-12.66,29.92-28.1c6.639,5.94,13.093,12.076,18.454,19.795
		c4.93,7.105,13.287-3.115,8.399-10.16c-7.625-10.988-17.479-19.004-26.947-27.462c-3.068-2.73-7.921,0.106-8.73,4.292
		c-5.35,27.508-22.898,27.366-41.7,30.056c9.149-18.217,11.986-38.846,9.782-60.467c-0.916-9.073-12.809-9.186-11.887,0
		c2.299,22.614-1.022,42.711-12.555,61.017c-0.686,1.088-1.017,2.157-1.117,3.186c-9.723,3.518-18.016,9.31-24.825,18.081v-98.662
		c27.485-6.41,55.023-10.858,83.07-11.142c5.112-0.057,6.738-6.41,5.03-10.648c0.579-2.128,0.2-4.507-1.815-6.401
		c-10.811-10.158-22.738-17.928-36.304-21.004c-7.489-1.693-10.692,12.149-3.162,13.854c8.021,1.815,15.498,5.423,22.426,10.332
		c-23.289,1.307-46.293,5.199-69.239,10.43V39.679c5.214-5.385,21.456-20.407,43.113-24.465
		c-3.83,18.323-8.807,36.153-15.693,53.197c-3.345,8.292,6.904,15.575,10.262,7.252c7.612-18.855,13.21-38.556,17.348-58.886
		c0.786-0.42,1.537-0.872,2.199-1.289c0.649-0.419,1.643-1.055,2.021-1.152c21.875,1.915,43.22,16.805,63.062,44.283
		c0.041,0.503,0.035,1.053,0.054,1.602c0.006,0.183,0.023,0.393,0.029,0.588c-25.292,13.793-32.722,40.418-27.615,67.273
		c-18.341-2.855-37.049-5.423-55.023-2.335c0.526-4.279,0.71-8.588,0.716-13.001c0-9.268-11.887-9.262-11.887,0
		c-0.006,5.66-0.267,10.841-1.555,16.234c-5.899,2.045-11.674,4.864-17.301,8.688c-6.68,4.54-0.686,16.949,6.005,12.404
		c25.435-17.292,55.384-11.464,83.147-6.993c3.836,10.562,9.457,20.779,16.627,29.812c5.313,6.693,13.707-3.476,8.404-10.158
		c-6.177-7.775-11.153-16.771-14.517-26.075c-0.142-1.625-0.632-3.218-1.543-4.507c-6.897-23.123-2.854-47.177,20.387-58.851
		c1.212,0.727,2.429,1.2,3.458,1.59c0.638,0.242,1.607,0.612,1.891,0.837c5.09,8.621,10.445,18.775,15.575,29.749
		c2.399,5.11,4.776,10.465,7.104,15.992c-13.146,17.921-10.687,24.506-9.847,26.77c2.601,6.919,9.114,5.29,14.865,3.869
		c1.555-0.388,4.132-1.029,5.811-1.206c4.007,12.832,9.18,31.954,12.785,54.56c-0.184,0.26-0.391,0.525-0.579,0.798
		c-0.698,0.969-1.508,2.192-2.217,3.585c-15.877-0.819-30.766,2.911-42.168,12.457c-7.53-13.565-20.858-20.283-35.021-18.578
		c-7.555,0.91-7.619,15.285,0,14.363c10.609-1.276,21.148,2.645,26.208,13.819c-6.177,8.659-10.479,20.041-12.129,34.546
		c-1.034,9.055,10.427,12.962,11.467,3.812c1.383-12.17,4.829-21.659,9.817-28.8c2.063-0.656,3.766-2.465,4.197-5.042
		c9.829-10.181,23.737-13.76,39.152-12.33c0.78,1.052,1.608,2.045,2.412,2.958c0.614,0.691,1.483,1.676,1.903,2.287
		c1.182,12.561,1.673,24.816,1.519,36.771C459.734,266.2,459.599,266.247,459.48,266.351z"/>
</g>
</svg>